# xmcd CD database file generated by Grip 3.3.0
# 
# Track frame offsets:
#       150
#       14455
#       28620
#       42685
#       55447
#       69250
#       82970
#       97257
#       110820
#       124582
#       139287
#       154180
#       168257
#       183265
#       198720
#       212442
# 
# Disc length: 3012 seconds
# 
# Revision: 1
# Processed by: cddbd v1.5.2PL0 Copyright (c) Steve Scherf et al.
# Submitted via: Grip 3.3.0
# 
DISCID=e70bc210
DTITLE=Eddie Lang and Lonnie Johnson - Blue Guitars - Volumes I and II - CD2
DYEAR=1997
DGENRE=Jazz
TTITLE0=I'll Never Be The Same
TTITLE1=April Kisses
TTITLE2=Prelude In C Sharp Minor
TTITLE3=The Melody Man's Dream
TTITLE4=Perfect
TTITLE5=Church Street Sobbin' Blues
TTITLE6=There'll Be Some Changes Made
TTITLE7=Jeannine (I Dream Of Lilac Time)
TTITLE8=Two Tone Stomp
TTITLE9=Guitar Blues
TTITLE10=Bull From Moan
TTITLE11=A Handful Of Riffs
TTITLE12=Work Ox Blues
TTITLE13=The Risin' Sun
TTITLE14=Jet Black Blues
TTITLE15=Blue Blood Blues
EXTD=YEAR: 1997
EXTT0=
EXTT1=
EXTT2=
EXTT3=
EXTT4=
EXTT5=
EXTT6=
EXTT7=
EXTT8=
EXTT9=
EXTT10=
EXTT11=
EXTT12=
EXTT13=
EXTT14=
EXTT15=
PLAYORDER=
